<svg width="84" height="78" viewBox="0 0 84 78" fill="none" xmlns="http://www.w3.org/2000/svg">
<path d="M61.0911 36.1875L31.691 19.4688C29.0516 18.0938 25.7274 19.8594 25.7274 22.75V55.25C25.7274 58.125 29.0349 59.9062 31.691 58.5312L61.0911 42.75C63.8307 41.3281 63.8307 37.625 61.0911 36.1875ZM83.1913 39C83.1913 17.5938 64.6492 0.25 41.7639 0.25C18.8785 0.25 0.336365 17.5938 0.336365 39C0.336365 60.4062 18.8785 77.75 41.7639 77.75C64.6492 77.75 83.1913 60.4062 83.1913 39ZM8.35459 39C8.35459 21.7344 23.3052 7.75 41.7639 7.75C60.2225 7.75 75.1731 21.7344 75.1731 39C75.1731 56.2656 60.2225 70.25 41.7639 70.25C23.3052 70.25 8.35459 56.2656 8.35459 39Z" fill="#58A9B7"/>
<path d="M61.0911 36.1875L31.691 19.4688C29.0516 18.0938 25.7274 19.8594 25.7274 22.75V55.25C25.7274 58.125 29.0349 59.9062 31.691 58.5312L61.0911 42.75C63.8307 41.3281 63.8307 37.625 61.0911 36.1875ZM83.1913 39C83.1913 17.5938 64.6492 0.25 41.7639 0.25C18.8785 0.25 0.336365 17.5938 0.336365 39C0.336365 60.4062 18.8785 77.75 41.7639 77.75C64.6492 77.75 83.1913 60.4062 83.1913 39ZM8.35459 39C8.35459 21.7344 23.3052 7.75 41.7639 7.75C60.2225 7.75 75.1731 21.7344 75.1731 39C75.1731 56.2656 60.2225 70.25 41.7639 70.25C23.3052 70.25 8.35459 56.2656 8.35459 39Z" fill="url(#paint0_linear)"/>
<defs>
<linearGradient id="paint0_linear" x1="41.7639" y1="0.25" x2="41.7639" y2="77.75" gradientUnits="userSpaceOnUse">
<stop stop-color="white"/>
<stop offset="1" stop-color="white" stop-opacity="0"/>
</linearGradient>
</defs>
</svg>

