<svg width="100" height="98" viewBox="0 0 100 98" fill="none" xmlns="http://www.w3.org/2000/svg">
<path d="M0.449248 79.5078C-0.429658 80.9922 0.0390917 82.9258 1.52347 83.8438L22.2071 96.5781C23.711 97.4961 25.6641 97.0469 26.5821 95.543C26.5821 95.5235 26.6016 95.5039 26.6016 95.5039C39.7071 73.5899 42.3242 76.7735 81.4649 95.3672C83.0469 96.1289 84.9414 95.4453 85.7031 93.8633C85.7227 93.8438 85.7227 93.8047 85.7422 93.7852L95.586 71.5C96.2891 69.918 95.5664 68.0625 94.0039 67.3399C89.668 65.3086 81.0742 61.2461 73.3203 57.5156C24.9024 33.961 8.71097 66.4414 0.449248 79.5078ZM99.5508 18.5508C100.43 17.0664 99.961 15.1328 98.4766 14.2149L77.8125 1.50002C76.3477 0.523462 74.375 0.894556 73.3985 2.3594C73.3594 2.41799 73.3203 2.47659 73.2813 2.55471C60.1367 24.5469 57.4414 21.2266 18.4766 2.73049C16.8946 1.96877 15 2.65237 14.2383 4.2344C14.2188 4.25393 14.2188 4.29299 14.1992 4.31252L4.33597 26.5977C3.63284 28.1797 4.3555 30.0352 5.918 30.7578C10.2539 32.7891 18.8672 36.8516 26.6211 40.6016C75.0586 64.0391 91.2305 31.7344 99.5508 18.5508Z" fill="#4F7177"/>
</svg>
