<svg width="88" height="100" viewBox="0 0 88 100" fill="none" xmlns="http://www.w3.org/2000/svg">
<path d="M87.5 14.2857V23.2143C87.5 31.0826 67.9037 37.5 43.75 37.5C19.5963 37.5 0 31.0826 0 23.2143V14.2857C0 6.41738 19.5963 0 43.75 0C67.9037 0 87.5 6.41738 87.5 14.2857ZM87.5 34.375V54.4643C87.5 62.3326 67.9037 68.75 43.75 68.75C19.5963 68.75 0 62.3326 0 54.4643V34.375C9.39941 40.8482 26.6031 43.8617 43.75 43.8617C60.8969 43.8617 78.1004 40.8482 87.5 34.375ZM87.5 65.625V85.7143C87.5 93.5826 67.9037 100 43.75 100C19.5963 100 0 93.5826 0 85.7143V65.625C9.39941 72.0982 26.6031 75.1117 43.75 75.1117C60.8969 75.1117 78.1004 72.0982 87.5 65.625Z" fill="#4F7177"/>
</svg>
