<svg width="100" height="76" viewBox="0 0 100 76" fill="none" xmlns="http://www.w3.org/2000/svg">
<path d="M90.625 0.5H9.375C4.19727 0.5 0 4.69727 0 9.875V66.125C0 71.3027 4.19727 75.5 9.375 75.5H90.625C95.8027 75.5 100 71.3027 100 66.125V9.875C100 4.69727 95.8027 0.5 90.625 0.5ZM90.625 9.875V17.8447C86.2457 21.4109 79.2641 26.9563 64.3385 38.6436C61.0492 41.2309 54.5336 47.4467 50 47.3742C45.4672 47.4475 38.9494 41.2299 35.6615 38.6436C20.7383 26.958 13.7549 21.4115 9.375 17.8447V9.875H90.625ZM9.375 66.125V29.8746C13.8504 33.4393 20.1971 38.4414 29.8707 46.0164C34.1396 49.3768 41.6156 56.7949 50 56.7498C58.3432 56.7949 65.7244 49.4844 70.1275 46.018C79.801 38.4432 86.1494 33.4396 90.625 29.8748V66.125H9.375Z" fill="#414042"/>
</svg>
