<svg width="417" height="82" viewBox="0 0 417 82" fill="none" xmlns="http://www.w3.org/2000/svg">
<path d="M0 0H31.8435V14.697H19.0906V28.6164H31.027V42.6136H19.0906V58.7492H33.1266V73.4462H0V0ZM74.3286 13.2584L67.019 42.0303L75.8838 73.4462H58.0375C56.3008 65.5145 54.9788 58.6973 54.0716 52.9948C52.8533 60.123 51.5314 66.9401 50.1057 73.4462H34.7866L42.6795 42.0303L34.7866 13.2584H50.1057C52.5682 25.5448 53.8902 32.5175 54.0716 34.1764C55.8083 23.9118 57.1302 16.9391 58.0375 13.2584H74.3286ZM96.9517 13.2584L96.6407 18.5851C98.2737 16.4337 100.075 14.8266 102.045 13.7639C104.015 12.7011 106.166 12.1697 108.499 12.1697C111.325 12.1697 113.774 12.9344 115.848 14.4637C117.922 15.993 119.218 17.7556 119.736 19.7515C120.254 21.7474 120.514 25.1301 120.514 29.8995V55.2499C120.514 60.7191 120.19 64.6202 119.542 66.9531C118.894 69.26 117.559 71.1004 115.537 72.4742C113.541 73.848 111.117 74.5349 108.266 74.5349C105.985 74.5349 103.873 74.0035 101.928 72.9407C100.01 71.878 98.2477 70.3098 96.6407 68.2361V82H78.3277V13.2584H96.9517ZM102.201 30.7549C102.201 27.0482 102.058 24.8061 101.773 24.0284C101.514 23.2249 100.762 22.8231 99.5178 22.8231C98.2996 22.8231 97.509 23.2767 97.1461 24.184C96.8091 25.0912 96.6407 27.2815 96.6407 30.7549V55.7165C96.6407 59.3453 96.8221 61.6134 97.185 62.5206C97.5479 63.4278 98.3385 63.8815 99.5567 63.8815C100.723 63.8815 101.449 63.4667 101.734 62.6373C102.045 61.8078 102.201 59.786 102.201 56.5718V30.7549ZM168.026 44.4021H144.309V57.4272C144.309 60.1489 144.503 61.9115 144.892 62.715C145.306 63.4927 146.071 63.8815 147.186 63.8815C148.559 63.8815 149.48 63.363 149.946 62.3262C150.439 61.2635 150.685 59.2417 150.685 56.2608V48.3291H168.026V52.7615C168.026 56.4941 167.793 59.3583 167.326 61.3542C166.859 63.3501 165.758 65.4885 164.021 67.7696C162.31 70.0247 160.133 71.7225 157.489 72.863C154.845 73.9776 151.527 74.5349 147.536 74.5349C143.673 74.5349 140.252 73.9776 137.271 72.863C134.316 71.7484 132.009 70.2191 130.35 68.275C128.717 66.305 127.577 64.1536 126.929 61.8208C126.307 59.462 125.996 56.0534 125.996 51.5951V34.0209C125.996 28.759 126.708 24.6117 128.134 21.5789C129.56 18.5462 131.88 16.2263 135.094 14.6192C138.334 12.9862 142.053 12.1697 146.253 12.1697C151.411 12.1697 155.662 13.1547 159.006 15.1247C162.349 17.0688 164.682 19.6479 166.004 22.862C167.352 26.0762 168.026 30.5993 168.026 36.4315V44.4021ZM149.674 34.6041V30.2105C149.674 27.1 149.506 25.0912 149.169 24.184C148.832 23.2767 148.158 22.8231 147.147 22.8231C145.877 22.8231 145.086 23.2119 144.775 23.9896C144.464 24.7672 144.309 26.8408 144.309 30.2105V34.6041H149.674ZM192.339 13.2584L191.639 21.1513C194.283 15.5006 198.133 12.5067 203.187 12.1697V33.3599C199.843 33.3599 197.381 33.8135 195.8 34.7207C194.219 35.6279 193.247 36.8981 192.884 38.5311C192.521 40.1381 192.339 43.8577 192.339 49.6899V73.4462H174.026V13.2584H192.339ZM226.129 0V9.6036H207.272V0H226.129ZM226.129 13.2584V73.4462H207.272V13.2584H226.129ZM274.202 44.4021H250.484V57.4272C250.484 60.1489 250.679 61.9115 251.067 62.715C251.482 63.4927 252.247 63.8815 253.361 63.8815C254.735 63.8815 255.655 63.363 256.122 62.3262C256.614 61.2635 256.861 59.2417 256.861 56.2608V48.3291H274.202V52.7615C274.202 56.4941 273.968 59.3583 273.502 61.3542C273.035 63.3501 271.934 65.4885 270.197 67.7696C268.486 70.0247 266.309 71.7225 263.665 72.863C261.021 73.9776 257.703 74.5349 253.711 74.5349C249.849 74.5349 246.428 73.9776 243.447 72.863C240.492 71.7484 238.185 70.2191 236.526 68.275C234.893 66.305 233.752 64.1536 233.104 61.8208C232.482 59.462 232.171 56.0534 232.171 51.5951V34.0209C232.171 28.759 232.884 24.6117 234.31 21.5789C235.735 18.5462 238.055 16.2263 241.269 14.6192C244.509 12.9862 248.229 12.1697 252.428 12.1697C257.586 12.1697 261.837 13.1547 265.181 15.1247C268.525 17.0688 270.858 19.6479 272.18 22.862C273.528 26.0762 274.202 30.5993 274.202 36.4315V44.4021ZM255.85 34.6041V30.2105C255.85 27.1 255.681 25.0912 255.344 24.184C255.007 23.2767 254.333 22.8231 253.323 22.8231C252.052 22.8231 251.262 23.2119 250.951 23.9896C250.64 24.7672 250.484 26.8408 250.484 30.2105V34.6041H255.85ZM298.826 13.2584L298.515 18.7795C299.863 16.5763 301.496 14.9303 303.414 13.8416C305.332 12.727 307.548 12.1697 310.063 12.1697C313.199 12.1697 315.765 12.9085 317.761 14.386C319.757 15.8634 321.04 17.7297 321.61 19.9848C322.181 22.2399 322.466 25.9984 322.466 31.2603V73.4462H304.153V31.7658C304.153 27.6185 304.01 25.0912 303.725 24.184C303.466 23.2767 302.714 22.8231 301.47 22.8231C300.174 22.8231 299.357 23.3545 299.02 24.4173C298.684 25.4541 298.515 28.2406 298.515 32.7767V73.4462H280.202V13.2584H298.826ZM369.291 35.9649H351.989V29.0441C351.989 26.6335 351.795 25.0005 351.406 24.1451C351.017 23.2638 350.291 22.8231 349.229 22.8231C348.166 22.8231 347.453 23.2119 347.09 23.9896C346.727 24.7413 346.546 26.4261 346.546 29.0441V57.4272C346.546 59.5786 346.818 61.1987 347.362 62.2873C347.907 63.3501 348.71 63.8815 349.773 63.8815C351.017 63.8815 351.859 63.3242 352.3 62.2096C352.741 61.095 352.961 58.9695 352.961 55.8331V48.679H369.291C369.265 53.5002 369.084 57.1162 368.747 59.5268C368.436 61.9115 367.425 64.374 365.714 66.9142C364.003 69.4285 361.774 71.3336 359.027 72.6297C356.279 73.8998 352.883 74.5349 348.84 74.5349C343.656 74.5349 339.547 73.6535 336.514 71.8909C333.508 70.1283 331.369 67.6529 330.099 64.4647C328.855 61.2505 328.233 56.7144 328.233 50.8563V33.7487C328.233 28.6423 328.738 24.7931 329.749 22.201C330.786 19.609 332.976 17.2891 336.32 15.2413C339.69 13.1936 343.785 12.1697 348.606 12.1697C353.376 12.1697 357.445 13.1807 360.815 15.2025C364.211 17.2243 366.466 19.7775 367.58 22.862C368.721 25.9466 369.291 30.3142 369.291 35.9649ZM416.208 44.4021H392.49V57.4272C392.49 60.1489 392.685 61.9115 393.073 62.715C393.488 63.4927 394.253 63.8815 395.367 63.8815C396.741 63.8815 397.661 63.363 398.128 62.3262C398.62 61.2635 398.867 59.2417 398.867 56.2608V48.3291H416.208V52.7615C416.208 56.4941 415.974 59.3583 415.508 61.3542C415.041 63.3501 413.939 65.4885 412.203 67.7696C410.492 70.0247 408.315 71.7225 405.671 72.863C403.027 73.9776 399.709 74.5349 395.717 74.5349C391.855 74.5349 388.434 73.9776 385.453 72.863C382.498 71.7484 380.191 70.2191 378.532 68.275C376.899 66.305 375.758 64.1536 375.11 61.8208C374.488 59.462 374.177 56.0534 374.177 51.5951V34.0209C374.177 28.759 374.89 24.6117 376.316 21.5789C377.741 18.5462 380.061 16.2263 383.275 14.6192C386.515 12.9862 390.235 12.1697 394.434 12.1697C399.592 12.1697 403.843 13.1547 407.187 15.1247C410.531 17.0688 412.864 19.6479 414.186 22.862C415.534 26.0762 416.208 30.5993 416.208 36.4315V44.4021ZM397.856 34.6041V30.2105C397.856 27.1 397.687 25.0912 397.35 24.184C397.013 23.2767 396.339 22.8231 395.328 22.8231C394.058 22.8231 393.268 23.2119 392.957 23.9896C392.646 24.7672 392.49 26.8408 392.49 30.2105V34.6041H397.856Z" fill="#4F7177"/>
</svg>
