<svg width="97" height="96" viewBox="0 0 97 96" fill="none" xmlns="http://www.w3.org/2000/svg">
<path d="M32.4023 76.6172C32.4023 77.0078 31.9531 77.3203 31.3867 77.3203C30.7422 77.3789 30.293 77.0664 30.293 76.6172C30.293 76.2266 30.7422 75.9141 31.3086 75.9141C31.8945 75.8555 32.4023 76.168 32.4023 76.6172ZM26.3281 75.7383C26.1914 76.1289 26.582 76.5781 27.168 76.6953C27.6758 76.8906 28.2617 76.6953 28.3789 76.3047C28.4961 75.9141 28.125 75.4648 27.5391 75.2891C27.0312 75.1523 26.4648 75.3477 26.3281 75.7383ZM34.9609 75.4062C34.3945 75.543 34.0039 75.9141 34.0625 76.3633C34.1211 76.7539 34.6289 77.0078 35.2148 76.8711C35.7812 76.7344 36.1719 76.3633 36.1133 75.9727C36.0547 75.6016 35.5273 75.3477 34.9609 75.4062ZM47.8125 0.5625C20.7227 0.5625 0 21.1289 0 48.2188C0 69.8789 13.6328 88.4141 33.1055 94.9375C35.6055 95.3867 36.4844 93.8438 36.4844 92.5742C36.4844 91.3633 36.4258 84.6836 36.4258 80.582C36.4258 80.582 22.7539 83.5117 19.8828 74.7617C19.8828 74.7617 17.6562 69.0781 14.4531 67.6133C14.4531 67.6133 9.98047 64.5469 14.7656 64.6055C14.7656 64.6055 19.6289 64.9961 22.3047 69.6445C26.582 77.1836 33.75 75.0156 36.543 73.7266C36.9922 70.6016 38.2617 68.4336 39.668 67.1445C28.75 65.9336 17.7344 64.3516 17.7344 45.5625C17.7344 40.1914 19.2188 37.4961 22.3438 34.0586C21.8359 32.7891 20.1758 27.5547 22.8516 20.7969C26.9336 19.5273 36.3281 26.0703 36.3281 26.0703C40.2344 24.9766 44.4336 24.4102 48.5938 24.4102C52.7539 24.4102 56.9531 24.9766 60.8594 26.0703C60.8594 26.0703 70.2539 19.5078 74.3359 20.7969C77.0117 27.5742 75.3516 32.7891 74.8438 34.0586C77.9688 37.5156 79.8828 40.2109 79.8828 45.5625C79.8828 64.4102 68.3789 65.9141 57.4609 67.1445C59.2578 68.6875 60.7813 71.6172 60.7813 76.207C60.7813 82.7891 60.7227 90.9336 60.7227 92.5352C60.7227 93.8047 61.6211 95.3477 64.1016 94.8984C83.6328 88.4141 96.875 69.8789 96.875 48.2188C96.875 21.1289 74.9023 0.5625 47.8125 0.5625ZM18.9844 67.9258C18.7305 68.1211 18.7891 68.5703 19.1211 68.9414C19.4336 69.2539 19.8828 69.3906 20.1367 69.1367C20.3906 68.9414 20.332 68.4922 20 68.1211C19.6875 67.8086 19.2383 67.6719 18.9844 67.9258ZM16.875 66.3438C16.7383 66.5977 16.9336 66.9102 17.3242 67.1055C17.6367 67.3008 18.0273 67.2422 18.1641 66.9688C18.3008 66.7148 18.1055 66.4023 17.7148 66.207C17.3242 66.0898 17.0117 66.1484 16.875 66.3438ZM23.2031 73.2969C22.8906 73.5508 23.0078 74.1367 23.457 74.5078C23.9062 74.957 24.4727 75.0156 24.7266 74.7031C24.9805 74.4492 24.8633 73.8633 24.4727 73.4922C24.043 73.043 23.457 72.9844 23.2031 73.2969ZM20.9766 70.4258C20.6641 70.6211 20.6641 71.1289 20.9766 71.5781C21.2891 72.0273 21.8164 72.2227 22.0703 72.0273C22.3828 71.7734 22.3828 71.2656 22.0703 70.8164C21.7969 70.3672 21.2891 70.1719 20.9766 70.4258Z" fill="#4F7177"/>
</svg>
