<svg width="100" height="88" viewBox="0 0 100 88" fill="none" xmlns="http://www.w3.org/2000/svg">
<path d="M50.0223 21.5391C35.8259 21.5391 24.375 31.5586 24.375 43.9805C24.375 56.4023 35.8259 66.4219 50.0223 66.4219C64.2188 66.4219 75.6696 56.4023 75.6696 43.9805C75.6696 31.5586 64.2188 21.5391 50.0223 21.5391ZM50.0223 58.5703C40.8482 58.5703 33.3482 52.0273 33.3482 43.9805C33.3482 35.9336 40.8259 29.3906 50.0223 29.3906C59.2188 29.3906 66.6964 35.9336 66.6964 43.9805C66.6964 52.0273 59.1964 58.5703 50.0223 58.5703ZM82.7009 20.6211C82.7009 23.5313 80.0223 25.8555 76.7188 25.8555C73.3929 25.8555 70.7366 23.5117 70.7366 20.6211C70.7366 17.7305 73.4152 15.3867 76.7188 15.3867C80.0223 15.3867 82.7009 17.7305 82.7009 20.6211ZM99.6875 25.9336C99.308 18.9219 97.4777 12.7109 91.6071 7.59375C85.7589 2.47656 78.6607 0.875 70.6473 0.523438C62.3884 0.113281 37.6339 0.113281 29.375 0.523438C21.3839 0.855469 14.2857 2.45703 8.41519 7.57422C2.54466 12.6914 0.736624 18.9023 0.334839 25.9141C-0.133911 33.1406 -0.133911 54.8008 0.334839 62.0273C0.714303 69.0391 2.54466 75.25 8.41519 80.3672C14.2857 85.4844 21.3616 87.0859 29.375 87.4375C37.6339 87.8477 62.3884 87.8477 70.6473 87.4375C78.6607 87.1055 85.7589 85.5039 91.6071 80.3672C97.4554 75.25 99.2857 69.0391 99.6875 62.0273C100.156 54.8008 100.156 33.1602 99.6875 25.9336ZM89.0179 69.7812C87.2768 73.6094 83.9062 76.5586 79.5089 78.1016C72.9241 80.3867 57.2991 79.8594 50.0223 79.8594C42.7455 79.8594 27.0982 80.3672 20.5357 78.1016C16.1607 76.5781 12.7902 73.6289 11.0268 69.7812C8.41519 64.0195 9.01787 50.3477 9.01787 43.9805C9.01787 37.6133 8.43752 23.9219 11.0268 18.1797C12.7679 14.3516 16.1384 11.4023 20.5357 9.85938C27.1205 7.57422 42.7455 8.10156 50.0223 8.10156C57.2991 8.10156 72.9464 7.59375 79.5089 9.85938C83.8839 11.3828 87.2545 14.332 89.0179 18.1797C91.6295 23.9414 91.0268 37.6133 91.0268 43.9805C91.0268 50.3477 91.6295 64.0391 89.0179 69.7812Z" fill="#414042"/>
</svg>
