<svg width="100" height="88" viewBox="0 0 100 88" fill="none" xmlns="http://www.w3.org/2000/svg">
<path d="M22.3839 87.5H1.65179V29.082H22.3839V87.5ZM12.0067 21.1133C5.37723 21.1133 0 16.3086 0 10.5078C4.74509e-08 7.72148 1.26499 5.04928 3.51668 3.07905C5.76837 1.10882 8.82232 0.00195312 12.0067 0.00195312C15.1911 0.00195312 18.245 1.10882 20.4967 3.07905C22.7484 5.04928 24.0134 7.72148 24.0134 10.5078C24.0134 16.3086 18.6339 21.1133 12.0067 21.1133ZM99.9777 87.5H79.2902V59.0625C79.2902 52.2852 79.1339 43.5938 68.5112 43.5938C57.7321 43.5938 56.0804 50.957 56.0804 58.5742V87.5H35.3705V29.082H55.2545V37.0508H55.5446C58.3125 32.4609 65.0737 27.6172 75.1607 27.6172C96.1429 27.6172 100 39.707 100 55.4102V87.5H99.9777Z" fill="#414042"/>
</svg>
