<svg width="387" height="526" viewBox="0 0 387 526" fill="none" xmlns="http://www.w3.org/2000/svg">
<path d="M147.686 395.646H172.822C189.067 395.646 200.068 396.414 205.824 397.949C211.58 399.42 215.93 401.882 218.872 405.336C221.878 408.726 223.732 412.499 224.436 416.657C225.204 420.814 225.587 429.032 225.587 441.312V486.595C225.587 498.235 225.044 506.006 223.956 509.908C222.869 513.809 220.95 516.879 218.2 519.118C215.514 521.356 212.156 522.923 208.127 523.819C204.161 524.65 198.149 525.066 190.09 525.066H147.686V395.646ZM181.36 417.808V502.904C186.157 502.904 189.099 501.945 190.186 500.026C191.338 498.044 191.913 492.735 191.913 484.101V433.925C191.913 428.041 191.721 424.268 191.338 422.605C191.018 420.942 190.186 419.727 188.843 418.959C187.5 418.192 185.006 417.808 181.36 417.808ZM238.152 395.646H294.275V421.549H271.826V446.109H292.836V470.765H271.826V499.163H296.482V525.066H238.152V395.646ZM386.077 395.646L369 525.066H317.865L298.486 395.646H333.983C338.076 431.335 340.986 461.459 342.713 486.019C344.504 461.14 346.359 439.042 348.277 419.727L350.58 395.646H386.077Z" fill="#58A9B7"/>
<path d="M172.856 238.405H141.58V228.811C141.58 224.334 141.164 221.488 140.333 220.272C139.565 218.993 138.254 218.354 136.399 218.354C134.417 218.354 132.882 219.185 131.794 220.848C130.771 222.511 130.259 225.005 130.259 228.331C130.259 232.68 130.835 235.942 131.986 238.117C133.138 240.291 136.304 242.946 141.484 246.08C156.514 254.97 165.948 262.261 169.786 267.953C173.687 273.646 175.638 282.824 175.638 295.487C175.638 304.697 174.551 311.509 172.376 315.922C170.265 320.271 166.108 323.917 159.904 326.859C153.7 329.801 146.505 331.272 138.318 331.272C129.3 331.272 121.593 329.577 115.197 326.188C108.865 322.798 104.708 318.481 102.725 313.236C100.807 307.927 99.8473 300.412 99.8473 290.691V282.248H131.027V297.982C131.027 302.843 131.475 305.977 132.37 307.384C133.266 308.727 134.833 309.398 137.071 309.398C139.31 309.398 140.973 308.535 142.06 306.808C143.147 305.017 143.691 302.395 143.691 298.941C143.691 291.33 142.635 286.341 140.525 283.975C138.414 281.672 133.17 277.771 124.791 272.271C116.476 266.706 110.944 262.677 108.194 260.182C105.508 257.688 103.269 254.234 101.478 249.821C99.6874 245.408 98.792 239.748 98.792 232.84C98.792 222.927 100.039 215.699 102.534 211.158C105.092 206.553 109.185 202.972 114.814 200.413C120.506 197.791 127.349 196.48 135.344 196.48C144.043 196.48 151.462 197.887 157.602 200.701C163.806 203.515 167.899 207.065 169.882 211.35C171.864 215.636 172.856 222.927 172.856 233.224V238.405ZM219.88 199.166V328.586H186.206V199.166H219.88ZM233.357 199.166H258.492C274.738 199.166 285.739 199.934 291.495 201.469C297.251 202.94 301.6 205.402 304.542 208.856C307.548 212.246 309.403 216.019 310.107 220.177C310.874 224.334 311.258 232.552 311.258 244.832V290.115C311.258 301.755 310.714 309.526 309.627 313.428C308.54 317.329 306.621 320.399 303.871 322.638C301.185 324.876 297.827 326.443 293.797 327.339C289.832 328.17 283.82 328.586 275.761 328.586H233.357V199.166ZM267.031 221.328V306.424C271.828 306.424 274.77 305.465 275.857 303.546C277.008 301.564 277.584 296.255 277.584 287.621V237.445C277.584 231.561 277.392 227.788 277.008 226.125C276.689 224.462 275.857 223.247 274.514 222.479C273.171 221.712 270.676 221.328 267.031 221.328ZM323.822 199.166H379.946V225.069H357.497V249.629H378.507V274.285H357.497V302.683H382.152V328.586H323.822V199.166Z" fill="#4F7177"/>
<path d="M0 2.68625H23.7925C39.6542 2.68625 50.3992 3.32583 56.0275 4.605C61.6558 5.82021 66.2288 8.95417 69.7466 14.0069C73.3282 18.9956 75.1191 27.0224 75.1191 38.0872C75.1191 48.1286 73.8719 54.8762 71.3775 58.33C68.8831 61.7837 63.9583 63.8624 56.6031 64.5659C63.2548 66.2289 67.7319 68.4674 70.0344 71.2816C72.3369 74.0318 73.7439 76.5581 74.2556 78.8606C74.8312 81.1631 75.1191 87.527 75.1191 97.9522V132.106H43.8434V89.1259C43.8434 82.2184 43.2998 77.9332 42.2125 76.2703C41.1252 74.6074 38.2791 73.7759 33.6741 73.7759V132.106H0V2.68625ZM33.6741 24.8478V53.6291C37.4476 53.6291 40.0699 53.1174 41.5409 52.0941C43.0759 51.0068 43.8434 47.617 43.8434 41.9247V34.8253C43.8434 30.732 43.1079 28.0457 41.6369 26.7666C40.1658 25.4874 37.5116 24.8478 33.6741 24.8478ZM121.822 2.68625V132.106H88.1481V2.68625H121.822ZM212.529 50.3672H178.855V38.5669C178.855 31.2117 178.535 26.6067 177.895 24.7519C177.256 22.8331 175.721 21.8737 173.29 21.8737C171.244 21.8737 169.836 22.6732 169.069 24.2722C168.365 25.8711 168.014 29.9965 168.014 36.6481V98.7197C168.014 104.54 168.365 108.377 169.069 110.232C169.836 112.023 171.339 112.918 173.578 112.918C176.008 112.918 177.671 111.895 178.567 109.848C179.462 107.738 179.91 103.676 179.91 97.6644V82.3144H173.098V62.6472H212.529V132.106H191.326L188.16 122.8C185.922 126.829 183.044 129.835 179.526 131.818C176.008 133.801 171.883 134.792 167.15 134.792C161.522 134.792 156.245 133.449 151.32 130.763C146.396 128.013 142.654 124.623 140.096 120.593C137.537 116.5 135.939 112.247 135.299 107.834C134.659 103.357 134.34 96.673 134.34 87.7828V49.3119C134.34 36.9679 135.011 28.0137 136.354 22.4494C137.697 16.821 141.503 11.6724 147.771 7.00344C154.103 2.33448 162.289 0 172.331 0C182.18 0 190.335 2.04667 196.795 6.14C203.319 10.1694 207.572 14.9662 209.555 20.5306C211.537 26.095 212.529 34.1857 212.529 44.8028V50.3672ZM302.85 2.68625V132.106H269.272V77.8053H259.199V132.106H225.525V2.68625H259.199V49.0241H269.272V2.68625H302.85ZM384.122 2.68625V28.5894H364.167V132.106H330.493V28.5894H310.634V2.68625H384.122Z" fill="#92D3DE"/>
</svg>
