<svg width="100" height="100" viewBox="0 0 100 100" fill="none" xmlns="http://www.w3.org/2000/svg">
<path d="M59.625 0.75L63.375 1.58333L66.4167 2.66667L68.875 3.91667L70.75 5.25L72.1667 6.66667L73.2083 8.08333L73.875 9.45833L74.2917 10.7083L74.4583 11.7917L74.5417 12.625L74.5 13.1667V35.4167L74.2917 38.0417L73.75 40.3333L72.875 42.25L71.7917 43.8333L70.5417 45.125L69.1667 46.1667L67.7083 46.9583L66.25 47.5417L64.875 47.9583L63.625 48.25L62.5417 48.4167L61.6667 48.5H36.7917L33.9167 48.7083L31.4583 49.2917L29.375 50.2083L27.6667 51.3333L26.2917 52.6667L25.1667 54.125L24.3333 55.625L23.7083 57.1667L23.2917 58.625L23 59.9583L22.8333 61.0833L22.75 61.9583V74.7083H13.4583L12.5833 74.5833L11.4167 74.2917L10.0833 73.7917L8.625 73.0417L7.125 71.9583L5.625 70.4583L4.16667 68.5417L2.83333 66.0833L1.66667 63.0417L0.791667 59.375L0.208333 55L0 49.875L0.25 44.7917L0.916667 40.4583L1.91667 36.8333L3.25 33.875L4.75 31.5L6.41667 29.6667L8.16667 28.2917L9.91667 27.2917L11.5833 26.625L13.0833 26.2083L14.4167 26L15.4167 25.9583H16.0833L16.3333 26H50.3333V22.5417H26L25.9583 11.0833L25.875 9.54167L26.0833 8.125L26.5417 6.83333L27.25 5.66667L28.2917 4.58333L29.5833 3.625L31.1667 2.79167L33 2.04167L35.125 1.41667L37.5417 0.916667L40.2083 0.5L43.1667 0.25L46.375 0.0833333L49.875 0L55.1667 0.208333L59.625 0.75ZM33.375 9L32.4167 10.375L32.0833 12.0833L32.4167 13.7917L33.375 15.2083L34.75 16.125L36.4583 16.5L38.1667 16.125L39.5417 15.2083L40.5 13.7917L40.8333 12.0833L40.5 10.375L39.5417 9L38.1667 8.08333L36.4583 7.70833L34.75 8.08333L33.375 9ZM87.9167 25.4583L89.0833 25.7083L90.4167 26.2083L91.875 26.9583L93.375 28.0833L94.875 29.5417L96.3333 31.5L97.6667 33.9583L98.8333 37L99.7083 40.6667L100.292 45L100.5 50.125L100.25 55.25L99.5833 59.5833L98.5833 63.1667L97.25 66.125L95.75 68.5L94.0833 70.375L92.3333 71.75L90.5833 72.75L88.9167 73.4167L87.4167 73.7917L86.0833 74L85.0833 74.0833L84.4167 74.0417H50.1667V77.4583H74.5L74.5417 88.9583L74.625 90.4583L74.4167 91.875L73.9583 93.1667L73.25 94.375L72.2083 95.4167L70.9167 96.4167L69.3333 97.25L67.5 97.9583L65.375 98.5833L62.9583 99.125L60.2917 99.5L57.3333 99.7917L54.125 99.9583L50.625 100L45.3333 99.8333L40.875 99.25L37.125 98.4167L34.0833 97.375L31.625 96.125L29.75 94.75L28.3333 93.3333L27.2917 91.9167L26.625 90.5417L26.2083 89.2917L26.0417 88.25L25.9583 87.4167L26 86.875V64.625L26.2083 61.9583L26.75 59.7083L27.625 57.7917L28.7083 56.2083L29.9583 54.875L31.3333 53.875L32.7917 53.0417L34.25 52.4583L35.625 52.0417L36.875 51.7917L37.9583 51.625L38.8333 51.5417L39.375 51.5H63.7083L66.5833 51.2917L69.0417 50.7083L71.125 49.8333L72.8333 48.6667L74.2083 47.3333L75.3333 45.875L76.1667 44.375L76.7917 42.875L77.2083 41.4167L77.5 40.0833L77.6667 38.9167L77.75 38.0417V25.2917H86.4583L87.0417 25.3333L87.9167 25.4583ZM60.9583 84.8333L60 86.2083L59.6667 87.9167L60 89.625L60.9583 91L62.3333 91.9583L64.0417 92.2917L65.75 91.9583L67.125 91L68.0833 89.625L68.4167 87.9167L68.0833 86.2083L67.125 84.8333L65.75 83.875L64.0417 83.5417L62.3333 83.875L60.9583 84.8333Z" fill="#4F7177"/>
</svg>
