<svg width="100" height="100" viewBox="0 0 100 100" fill="none" xmlns="http://www.w3.org/2000/svg">
<path d="M21.0083 63.1875C21.0028 65.9717 19.8952 68.6405 17.9276 70.6105C15.9601 72.5804 13.2926 73.6912 10.5083 73.7C7.72266 73.6934 5.05303 72.5836 3.08364 70.6134C1.11426 68.6432 0.00550182 65.9732 0 63.1875C0.00770609 60.4037 1.11757 57.7362 3.08684 55.7684C5.0561 53.8007 7.72448 52.693 10.5083 52.6875H21.0083V63.1875ZM26.3042 63.1875C26.3119 60.4044 27.4212 57.7375 29.3895 55.7699C31.3579 53.8023 34.0252 52.6941 36.8083 52.6875C39.5915 52.6941 42.2588 53.8023 44.2271 55.7699C46.1955 57.7375 47.3048 60.4044 47.3125 63.1875V89.4917C47.3059 92.2759 46.1972 94.9443 44.2289 96.9134C42.2605 98.8826 39.5926 99.9923 36.8083 100C34.0241 99.9923 31.3562 98.8826 29.3878 96.9134C27.4194 94.9443 26.3108 92.2759 26.3042 89.4917V63.1875ZM36.8083 21.0083C34.0255 21.0006 31.3589 19.8921 29.3907 17.9247C27.4226 15.9574 26.313 13.2911 26.3042 10.5083C26.3108 7.7241 27.4194 5.05573 29.3878 3.08658C31.3562 1.11743 34.0241 0.00770171 36.8083 0C39.5926 0.00770171 42.2605 1.11743 44.2289 3.08658C46.1972 5.05573 47.3059 7.7241 47.3125 10.5083V21.0083H36.8083ZM36.8083 26.3042C39.5918 26.3119 42.2591 27.421 44.2274 29.3893C46.1956 31.3575 47.3048 34.0248 47.3125 36.8083C47.3048 39.5918 46.1956 42.2591 44.2274 44.2274C42.2591 46.1956 39.5918 47.3048 36.8083 47.3125H10.5083C7.7241 47.3059 5.05573 46.1972 3.08658 44.2289C1.11743 42.2605 0.00770171 39.5926 0 36.8083C0.00770171 34.0241 1.11743 31.3562 3.08658 29.3878C5.05573 27.4194 7.7241 26.3108 10.5083 26.3042H36.8083ZM78.9833 36.8083C78.991 34.0241 80.1008 31.3562 82.0699 29.3878C84.0391 27.4194 86.7074 26.3108 89.4917 26.3042C92.2759 26.3108 94.9443 27.4194 96.9134 29.3878C98.8826 31.3562 99.9923 34.0241 100 36.8083C99.9923 39.5926 98.8826 42.2605 96.9134 44.2289C94.9443 46.1972 92.2759 47.3059 89.4917 47.3125H78.9833V36.8083ZM73.7 36.8083C73.6923 39.5933 72.582 42.2618 70.6119 44.2303C68.6419 46.1988 65.9725 47.307 63.1875 47.3125C60.4044 47.3048 57.7375 46.1955 55.7699 44.2271C53.8023 42.2588 52.6941 39.5915 52.6875 36.8083V10.5083C52.693 7.72448 53.8007 5.0561 55.7684 3.08684C57.7362 1.11757 60.4037 0.00770609 63.1875 0C65.9732 0.00550182 68.6432 1.11426 70.6134 3.08364C72.5836 5.05303 73.6934 7.72266 73.7 10.5083V36.8083ZM63.1875 78.9833C65.9732 78.9888 68.6432 80.0976 70.6134 82.067C72.5836 84.0364 73.6934 86.706 73.7 89.4917C73.6934 92.2773 72.5836 94.947 70.6134 96.9164C68.6432 98.8857 65.9732 99.9945 63.1875 100C60.4037 99.9923 57.7362 98.8824 55.7684 96.9132C53.8007 94.9439 52.693 92.2755 52.6875 89.4917V78.9833H63.1875ZM63.1875 73.7C60.4029 73.6923 57.7348 72.5819 55.767 70.6117C53.7992 68.6415 52.6919 65.9721 52.6875 63.1875C52.6941 60.4048 53.8025 57.7379 55.7702 55.7702C57.7379 53.8025 60.4048 52.6941 63.1875 52.6875H89.4917C92.2755 52.693 94.9439 53.8007 96.9132 55.7684C98.8824 57.7362 99.9923 60.4037 100 63.1875C99.9945 65.9732 98.8857 68.6432 96.9164 70.6134C94.947 72.5836 92.2773 73.6934 89.4917 73.7H63.1875Z" fill="#4F7177"/>
</svg>
