<svg width="100" height="100" viewBox="0 0 100 100" fill="none" xmlns="http://www.w3.org/2000/svg">
<path d="M89.7207 29.6321C89.7842 30.5204 89.7842 31.4089 89.7842 32.2972C89.7842 59.3909 69.1625 90.6093 31.4721 90.6093C19.8603 90.6093 9.07363 87.2462 0 81.4089C1.6498 81.5991 3.23594 81.6626 4.94922 81.6626C14.5303 81.6626 23.3502 78.4267 30.3934 72.9063C21.3832 72.7159 13.8324 66.8149 11.2309 58.6931C12.5 58.8833 13.7689 59.0103 15.1016 59.0103C16.9416 59.0103 18.7818 58.7563 20.4949 58.3124C11.1041 56.4087 4.06074 48.1601 4.06074 38.1981V37.9444C6.78906 39.4673 9.96191 40.419 13.3246 40.5458C7.8043 36.8655 4.1877 30.5839 4.1877 23.4772C4.1877 19.6702 5.20273 16.1804 6.97949 13.1347C17.0684 25.5712 32.2334 33.6929 49.2383 34.5813C48.9211 33.0585 48.7307 31.4724 48.7307 29.886C48.7307 18.5915 57.8678 9.39111 69.2256 9.39111C75.1266 9.39111 80.4565 11.8657 84.2002 15.8632C88.832 14.9749 93.2736 13.2616 97.2078 10.914C95.6848 15.6729 92.4488 19.6704 88.1977 22.2083C92.3221 21.7644 96.3195 20.622 99.9996 19.0358C97.2082 23.0966 93.7182 26.7132 89.7207 29.6321Z" fill="#414042"/>
</svg>
